.
 
http://www.scenetime.com    -   SceneTime [ We been having it ] !!!


How come you press harder on a remote control when you know the battery is dead? so you better seed to get speed ;)

        Seed back for speed


...................................NFO:.................................................                                                                                                     
       
     
     
       
       
     
     
                                         
                                         
                EXVID                    
                                         
         
                                         
         Filled the Archives             
                                         
         
                                         
                With:                    
                                         
         
                                         
                                    
     E240                           
                                    
     SP               (C) 2009      
                                         
     
     
     
                                                                                  
                                                                                   
              Madly.In.Love.2010.FESTiVAL.DVDRip.XviD-EXViD                         
                                                                                   
                                                                                  
     
                                                                                               
EXViD aims to iNTERNAL those releases which have been lost in the archives.
EXViD aims to PRE non-internal releases which have poor sources and are likely skipped by others.
 
http://www.imdb.com/title/tt1506965/
Subtitles: EN, FR
Date: 2011.06

Director: Hilde Van Mieghem

Genres: Comedy

Plot:
A frank and funny romantic comedy set in Antwerp, filmed in a quirkily inventive style, Madly in
Love has a lot to say about human relationships. It focuses on the four women of the Miller family:
teen daughter Eva, her mother Judith, aunt Barbara and older half-sister Michelle, as they work
their way through the chaos called love. The result is a roller coaster ride of first crushes,
lust, affairs, baby fever, and indestructible love. The four women are beautiful, courageous and
sensible, but are also sometimes a bit lost. Can their male counterparts handle this dangerous
cocktail of determination and female hormones?

Cast:
Koen De Bouw 	 ... 	 Bert 
Jan Decleir 	 ... 	 Bob 
Huub Stapel 	 ... 	 Theo 
Veerle Dobbelaere 	 ... 	 Judith 
Marie Vinck 	 ... 	 Michelle 
Pierre Bokma 	 ... 	 Gerd Denolf 
Koen De Graeve 	 ... 	 Johan 
Wine Dierickx 	 ... 	 Barbara 
Kevin Janssens 	 ... 	 Mathias 
Stef Aerts 	 ... 	 Fre 
Mark Van Eeghem 	 ... 	 Frank 
Luk De Konink 	 ... 	 Karel Hoste 
Mathijs Scheepers 	 ... 	 David 
Karlijn Sileghem 	 ... 	 Dokter Mermans 
Enrique De Roeck 	 ... 	 Louis 		

Stats:
Format                           : AVI
Format/Info                      : Audio Video Interleave
File size                        : 695 MiB
Duration                         : 1h 26mn
Overall bit rate                 : 1 122 Kbps
Writing application              : VirtualDubMod 1.5.10.2 (build 2540/release)
Writing library                  : VirtualDubMod build 2540/release

Video
ID                               : 0
Format                           : MPEG-4 Visual
Format profile                   : Advanced Simple@L5
Format settings, BVOP            : Yes
Format settings, QPel            : No
Format settings, GMC             : No warppoints
Format settings, Matrix          : Default (H.263)
Muxing mode                      : Packed bitstream
Codec ID                         : XVID
Codec ID/Hint                    : XviD
Duration                         : 1h 26mn
Bit rate                         : 913 Kbps
Width                            : 640 pixels
Height                           : 288 pixels
Display aspect ratio             : 2.222
Frame rate                       : 25.000 fps
Color space                      : YUV
Chroma subsampling               : 4:2:0
Bit depth                        : 8 bits
Scan type                        : Progressive
Bits/(Pixel*Frame)               : 0.198
Stream size                      : 565 MiB (81%)
Writing library                  : XviD 62

Audio
ID                               : 1
Format                           : MPEG Audio
Format version                   : Version 1
Format profile                   : Layer 3
Mode                             : Joint stereo
Mode extension                   : MS Stereo
Codec ID                         : 55
Codec ID/Hint                    : MP3
Duration                         : 1h 26mn
Bit rate mode                    : Variable
Bit rate                         : 192 Kbps
Channel(s)                       : 2 channels
Sampling rate                    : 48.0 KHz
Stream size                      : 122 MiB (17%)
Alignment                        : Aligned on interleaves
Interleave, duration             : 24 ms (0.60 video frame)
Interleave, preload duration     : 93 ms
Writing library                  : LAME3.90.
Encoding settings                : -m j -V 4 -q 2 -lowpass 19.6 --abr 192




Release notes:
AR of this movie is 2.35, however we needed to crop this to 2.22 else we cut off one Dutch hardsubbed
line (see sample). The vobsubs however block this hardsubbed line and display the right translation.

enjoy!

Looking for:
75TB+ Archives
DUTCH/FLEMiSH Archives
                                                                                                    
Greets: CRBS EPiSODE FiCO FLS iLS KLASSiGER LiPSYNC MADE NODLABS RUNNER SPRiNTER      
   

                                                                    ASCII DONE BY XX^NFO 2oo9